# xmcd
#
# Track frame offsets: 
#        150
#        29372
#        57912
#        86446
#        113487
#        139251
#        165882
#        195019
#        221302
#        265711
#
# Disc length: 4051 seconds
#
# Revision: 3
# Processed by: cddbd v1.5.2PL0 Copyright (c) Steve Scherf et al.
# Submitted via: ExactAudioCopy v0.95b4
#
DISCID=720fd10a
DTITLE=Solitudes - In the midst of angels
DYEAR=1900
DGENRE=New Age
TTITLE0=Voices Of Peace
TTITLE1=Canyon Legacy
TTITLE2=Stillness Of Dawn
TTITLE3=A Sense Of Wonder
TTITLE4=Enchanted Seashore
TTITLE5=Boundless Beauty
TTITLE6=Longing
TTITLE7=Hidden Garden
TTITLE8=Ancient Air
TTITLE9=Copy Protection Data
EXTD=
EXTT0=
EXTT1=
EXTT2=
EXTT3=
EXTT4=
EXTT5=
EXTT6=
EXTT7=
EXTT8=
EXTT9=
PLAYORDER=
